<?xml version="1.0" encoding="UTF-8"?>
<svg width="24px" height="24px" viewBox="0 0 24 24" version="1.1" xmlns="http://www.w3.org/2000/svg" xmlns:xlink="http://www.w3.org/1999/xlink">
    <!-- Generator: Sketch 55.1 (78136) - https://sketchapp.com -->
    <title>Group 18</title>
    <desc>Created with Sketch.</desc>
    <g id="Desktop" stroke="none" stroke-width="1" fill="none" fill-rule="evenodd">
        <g id="Store-Page-Century-City" transform="translate(-1096.000000, -743.000000)">
            <g id="Group-16" transform="translate(1096.000000, 682.000000)">
                <g id="Group-18" transform="translate(1.000000, 62.000000)">
                    <path d="M21.913238,4.33098727 L17.669878,0.086747268 C17.4746254,-0.108545838 17.1580218,-0.108566379 16.9627438,0.0867013916 L0.0861038274,16.9624614 C-0.109167009,17.157722 -0.109171136,17.4743116 0.0860946094,17.6695774 L4.33033461,21.9138174 C4.52559676,22.1090795 4.84217924,22.1090795 5.03744139,21.9138174 L21.9132014,5.03805739 C22.1084492,4.84280956 22.1084656,4.52625534 21.913238,4.33098727 Z M20.8525779,4.68446735 L4.683888,20.8531572 L1.146764,17.3160332 L17.3162421,1.14739822 L20.8525779,4.68446735 Z" id="Stroke-1" fill="#333337" fill-rule="nonzero"></path>
                    <path d="M2.24139061,15.5138414 L5.18499061,18.4574414 C5.38025276,18.6527035 5.69683524,18.6527035 5.89209739,18.4574414 C6.08735954,18.2621792 6.08735954,17.9455968 5.89209739,17.7503346 L2.94849739,14.8067346 C2.75323524,14.6114725 2.43665276,14.6114725 2.24139061,14.8067346 C2.04612846,15.0019968 2.04612846,15.3185792 2.24139061,15.5138414 Z" id="Stroke-3" fill="#333337" fill-rule="nonzero"></path>
                    <path d="M8.52432661,9.23178539 L11.4679266,12.1753854 C11.6631888,12.3706475 11.9797712,12.3706475 12.1750334,12.1753854 C12.3702955,11.9801232 12.3702955,11.6635408 12.1750334,11.4682786 L9.23143339,8.52467861 C9.03617124,8.32941646 8.71958876,8.32941646 8.52432661,8.52467861 C8.32906446,8.71994076 8.32906446,9.03652324 8.52432661,9.23178539 Z" id="Stroke-4" fill="#2C97D3" fill-rule="nonzero"></path>
                    <path d="M14.8071746,2.94884939 L17.7507746,5.89244939 C17.9460368,6.08771154 18.2626192,6.08771154 18.4578814,5.89244939 C18.6531435,5.69718724 18.6531435,5.38060476 18.4578814,5.18534261 L15.5142814,2.24174261 C15.3190192,2.04648046 15.0024368,2.04648046 14.8071746,2.24174261 C14.6119125,2.43700476 14.6119125,2.75358724 14.8071746,2.94884939 Z" id="Stroke-5" fill="#333337" fill-rule="nonzero"></path>
                    <path d="M4.42766261,13.3275694 L6.10142261,15.0013294 C6.29668476,15.1965915 6.61326724,15.1965915 6.80852939,15.0013294 C7.00379154,14.8060672 7.00379154,14.4894848 6.80852939,14.2942226 L5.13476939,12.6204626 C4.93950724,12.4252005 4.62292476,12.4252005 4.42766261,12.6204626 C4.23240046,12.8157248 4.23240046,13.1323072 4.42766261,13.3275694 Z" id="Stroke-6" fill="#333337" fill-rule="nonzero"></path>
                    <path d="M7.09599861,10.6600254 L8.76975861,12.3337854 C8.96502076,12.5290475 9.28160324,12.5290475 9.47686539,12.3337854 C9.67212754,12.1385232 9.67212754,11.8219408 9.47686539,11.6266786 L7.80310539,9.95291861 C7.60784324,9.75765646 7.29126076,9.75765646 7.09599861,9.95291861 C6.90073646,10.1481808 6.90073646,10.4647632 7.09599861,10.6600254 Z" id="Stroke-7" fill="#2C97D3" fill-rule="nonzero"></path>
                    <path d="M9.76354261,7.99256939 L11.4373026,9.66632939 C11.6325648,9.86159154 11.9491472,9.86159154 12.1444094,9.66632939 C12.3396715,9.47106724 12.3396715,9.15448476 12.1444094,8.95922261 L10.4706494,7.28546261 C10.2753872,7.09020046 9.95880476,7.09020046 9.76354261,7.28546261 C9.56828046,7.48072476 9.56828046,7.79730724 9.76354261,7.99256939 Z" id="Stroke-8" fill="#2C97D3" fill-rule="nonzero"></path>
                    <path d="M12.4309057,5.32414046 L14.1046657,6.99878046 C14.2998765,7.19409392 14.616459,7.19417712 14.8117725,6.9989663 C15.0070859,6.80375547 15.0071691,6.487173 14.8119583,6.29185954 L13.1381983,4.61721954 C12.9429875,4.42190608 12.626405,4.42182288 12.4310915,4.6170337 C12.2357781,4.81224453 12.2356949,5.128827 12.4309057,5.32414046 Z" id="Stroke-9" fill="#333337" fill-rule="nonzero"></path>
                    <polygon id="Fill-10" fill="#F6F6FA" points="2.397384 6.814984 17.142664 21.559384 21.386904 17.315144 6.641624 2.571624 0.612744 0.786104"></polygon>
                    <g id="Group-15" stroke="#333337" stroke-linejoin="round">
                        <polygon id="Stroke-11" points="21.386904 17.315584 17.142664 21.559824 2.397384 6.814544 0.613624 0.786544 6.641624 2.571184"></polygon>
                        <path d="M1.465728,3.66784 L3.487968,1.6456" id="Stroke-13"></path>
                    </g>
                    <path d="M6.50135232,5.14552862 C6.75816198,5.13888205 6.96814584,4.93870565 6.9870591,4.68250716 L7.1401791,2.60834716 L6.1428929,2.53472484 L6.02309003,4.15757181 L4.50339968,4.19690338 C4.23722796,4.20379225 4.02314662,4.41806222 4.01649218,4.6842399 L3.97856413,6.2013618 L2.36188345,6.31615163 L2.43270855,7.31364037 L4.50246855,7.16668037 C4.75942297,7.14843574 4.9604618,6.93795296 4.96689982,6.6804321 L5.00430377,5.18427419 L6.50135232,5.14552862 Z" id="Stroke-16" fill="#333337" fill-rule="nonzero"></path>
                    <polygon id="Stroke-17" fill="#333337" fill-rule="nonzero" points="15.3002271 19.7179037 19.3631871 15.6558237 18.6561569 14.9486403 14.5931969 19.0107203"></polygon>
                </g>
            </g>
        </g>
    </g>
</svg>